<svg width="20" height="20" viewBox="0 0 20 20" fill="none" xmlns="http://www.w3.org/2000/svg">
<path d="M1 18V6.7C0.716667 6.51667 0.479333 6.28333 0.288 6C0.0960001 5.71667 0 5.38333 0 5V2C0 1.45 0.196 0.979 0.588 0.587C0.979333 0.195667 1.45 0 2 0H18C18.55 0 19.021 0.195667 19.413 0.587C19.8043 0.979 20 1.45 20 2V5C20 5.38333 19.904 5.71667 19.712 6C19.5207 6.28333 19.2833 6.51667 19 6.7V18C19 18.55 18.8043 19.021 18.413 19.413C18.021 19.8043 17.55 20 17 20H3C2.45 20 1.979 19.8043 1.587 19.413C1.19567 19.021 1 18.55 1 18ZM3 7V18H17V7H3ZM18 5V2H2V5H18ZM7 12H13V10H7V12ZM3 18V7V18Z" fill="#23202A" fill-opacity="0.6"/>
</svg>
