<svg width="20" height="20" viewBox="0 0 20 20" fill="none" xmlns="http://www.w3.org/2000/svg">
<path d="M10 20C8.61667 20 7.31667 19.7374 6.1 19.212C4.88333 18.6874 3.825 17.975 2.925 17.0751C2.025 16.1751 1.31267 15.1167 0.788 13.9C0.262667 12.6834 0 11.3834 0 10C0 7.41672 0.858333 5.17505 2.575 3.27505C4.29167 1.37505 6.43333 0.300049 9 0.0500488V3.05005C7.26667 3.28338 5.83333 4.05838 4.7 5.37505C3.56667 6.69172 3 8.23338 3 10C3 11.95 3.67933 13.604 5.038 14.962C6.396 16.3207 8.05 17 10 17C11.0667 17 12.0793 16.7751 13.038 16.3251C13.996 15.8751 14.8167 15.2334 15.5 14.4L18.1 15.9C17.15 17.2 15.9667 18.2084 14.55 18.925C13.1333 19.6417 11.6167 20 10 20ZM19.15 14.05L16.55 12.55C16.7 12.1334 16.8127 11.7124 16.888 11.287C16.9627 10.8624 17 10.4334 17 10C17 8.23338 16.4333 6.69172 15.3 5.37505C14.1667 4.05838 12.7333 3.28338 11 3.05005V0.0500488C13.5667 0.300049 15.7083 1.37505 17.425 3.27505C19.1417 5.17505 20 7.41672 20 10C20 10.7 19.9373 11.3917 19.812 12.075C19.6873 12.7584 19.4667 13.4167 19.15 14.05Z" fill="#23202A" fill-opacity="0.6"/>
</svg>
